<svg xmlns="http://www.w3.org/2000/svg" id="Layer_1" data-name="Layer 1" viewBox="0 0 100 100"><defs><style>.cls-1{fill:none;stroke:#343434;stroke-linecap:round;stroke-linejoin:round;stroke-width:3px}.cls-2{fill:#343434}</style></defs><title>171020_Klarna_Icons_100x100</title><line x1="81.57" x2="60.822" y1="67.705" y2="77.396" class="cls-1"/><path d="M18.6279,84.942C13.908,83.17586,10.971,80.19123,10.971,75.05292V69.79934" class="cls-1"/><path d="M66.059,90.5776l-8.87964,4.73785a8.58643,8.58643,0,0,1-5.77786.5459C41.80849,93.40215,18.62807,84.942,18.62807,84.942" class="cls-1"/><line x1="35.11" x2="51.333" y1="73.643" y2="81.238" class="cls-1"/><path d="M21.02922,59.69472l15.22952,0.42419a8.63337,8.63337,0,0,1,3.5152.82107L57.0973,69.34544" class="cls-1"/><path d="M57.0973,69.34544a6.608,6.608,0,0,1-5.76425,11.89271" class="cls-1"/><line x1="66.059" x2="87.158" y1="90.578" y2="79.681" class="cls-1"/><path d="M81.57022,67.70493a6.60805,6.60805,0,0,1,5.58817,11.97655" class="cls-1"/><path d="M21.02922,59.69472H17.45749A6.48649,6.48649,0,0,0,10.971,66.18121v3.61813" class="cls-1"/><path d="M64.94792,5.31317H55.43029a24.341,24.341,0,0,1-9.83985,19.64471l-3.77088,2.82394,14.6105,19.92285H68.44258L54.99913,29.37289A33.72,33.72,0,0,0,64.94792,5.31317" class="cls-2"/><rect width="9.752" height="42.391" x="30.905" y="5.313" class="cls-2"/><path id="_Compound_Path_" d="M75.10678,37.52672a5.32663,5.32663,0,1,0,5.32663,5.32663A5.32663,5.32663,0,0,0,75.10678,37.52672Z" class="cls-2" data-name="&lt;Compound Path&gt;"/></svg>